{
    "asset" : {
        "generator" : "Khronos glTF Blender I/O v1.4.40",
        "version" : "2.0"
    },
    "scene" : 0,
    "scenes" : [
        {
            "name" : "Scene",
            "nodes" : [
                0,
                1,
                2
            ]
        }
    ],
    "nodes" : [
        {
            "name" : "Light",
            "rotation" : [
                0.16907575726509094,
                0.7558803558349609,
                -0.27217137813568115,
                0.570947527885437
            ],
            "translation" : [
                4.103006839752197,
                5.903861999511719,
                -1.0054539442062378
            ]
        },
        {
            "name" : "Camera",
            "rotation" : [
                0.483536034822464,
                0.33687159419059753,
                -0.20870360732078552,
                0.7804827094078064
            ],
            "translation" : [
                7.385653018951416,
                4.958309173583984,
                6.925790786743164
            ]
        },
        {
            "mesh" : 0,
            "name" : "10522_Pool_Cue_v1_L3",
            "rotation" : [
                0.7143787145614624,
                0,
                0,
                0.699759304523468
            ],
            "scale" : [
                0.019960898905992508,
                0.019960898905992508,
                0.019960898905992508
            ],
            "translation" : [
                -0.1315906047821045,
                0.07093380391597748,
                -3.133042812347412
            ]
        }
    ],
    "materials" : [
        {
            "doubleSided" : true,
            "name" : "10522_Pool_Cue_v1",
            "pbrMetallicRoughness" : {
                "baseColorTexture" : {
                    "index" : 0,
                    "texCoord" : 0
                },
                "metallicFactor" : 0,
                "roughnessFactor" : 0.8333333134651184
            }
        }
    ],
    "meshes" : [
        {
            "name" : "10522_Pool_Cue_v1_L3",
            "primitives" : [
                {
                    "attributes" : {
                        "POSITION" : 0,
                        "NORMAL" : 1,
                        "TEXCOORD_0" : 2
                    },
                    "indices" : 3,
                    "material" : 0
                }
            ]
        }
    ],
    "textures" : [
        {
            "sampler" : 0,
            "source" : 0
        }
    ],
    "images" : [
        {
            "bufferView" : 4,
            "mimeType" : "image/jpeg",
            "name" : "10522_Pool_Cue_v1_Diffuse"
        }
    ],
    "accessors" : [
        {
            "bufferView" : 0,
            "componentType" : 5126,
            "count" : 1814,
            "max" : [
                159.99159240722656,
                158.3060302734375,
                0.909808874130249
            ],
            "min" : [
                10.08856201171875,
                156.37184143066406,
                -1.2316360473632812
            ],
            "type" : "VEC3"
        },
        {
            "bufferView" : 1,
            "componentType" : 5126,
            "count" : 1814,
            "type" : "VEC3"
        },
        {
            "bufferView" : 2,
            "componentType" : 5126,
            "count" : 1814,
            "type" : "VEC2"
        },
        {
            "bufferView" : 3,
            "componentType" : 5123,
            "count" : 9504,
            "type" : "SCALAR"
        }
    ],
    "bufferViews" : [
        {
            "buffer" : 0,
            "byteLength" : 21768,
            "byteOffset" : 0
        },
        {
            "buffer" : 0,
            "byteLength" : 21768,
            "byteOffset" : 21768
        },
        {
            "buffer" : 0,
            "byteLength" : 14512,
            "byteOffset" : 43536
        },
        {
            "buffer" : 0,
            "byteLength" : 19008,
            "byteOffset" : 58048
        },
        {
            "buffer" : 0,
            "byteLength" : 480718,
            "byteOffset" : 77056
        }
    ],
    "samplers" : [
        {
            "magFilter" : 9729,
            "minFilter" : 9986
        }
    ],
    "buffers" : [
        {
            "byteLength" : 557776,
            "uri" : "data:application/octet-stream;base64,"
        }
    ]
}
